<svg width="32" height="37" viewBox="0 0 32 37" fill="none" xmlns="http://www.w3.org/2000/svg">
<g clip-path="url(#clip0_671_394)">
<path d="M29.2733 31.4766L2.72674 31.4766C1.2208 31.4766 5.40476e-08 32.713 1.20719e-07 34.2383C1.8739e-07 35.7635 1.2208 37 2.72674 37L29.2733 37C30.7792 37 32 35.7635 32 34.2383C32 32.713 30.7792 31.4766 29.2733 31.4766Z" fill="black"/>
<path d="M26.7481 22.1455L26.9216 21.9698L26.7481 21.7942L26.4728 21.5154L26.2949 21.3352L26.117 21.5154L16.7684 30.984L7.60066 21.6986L7.42276 21.5184L7.24486 21.6986L6.96956 21.9775L6.79614 22.1531L6.96956 22.3287L16.5905 32.0731L16.7684 32.2533L16.9463 32.0731L26.7481 22.1455Z" fill="black" stroke="black" stroke-width="0.5"/>
<path d="M16.5732 -0.249781L16.3232 -0.249781L16.3232 0.000219356L16.3232 31.6187L16.3232 31.8687L16.5732 31.8687L16.9624 31.8687L17.2124 31.8687L17.2124 31.6187L17.2124 0.000219317L17.2124 -0.249781L16.9624 -0.249781L16.5732 -0.249781Z" fill="black" stroke="black" stroke-width="0.5"/>
</g>
<defs>
<clipPath id="clip0_671_394">
<rect width="37" height="32" fill="white" transform="translate(0 37) rotate(-90)"/>
</clipPath>
</defs>
</svg>
