<svg width="37" height="32" viewBox="0 0 37 32" fill="none" xmlns="http://www.w3.org/2000/svg">
<g clip-path="url(#clip0_668_230)">
<path d="M5.52344 29.2733L5.52344 2.72674C5.52344 1.2208 4.28697 0 2.76171 0C1.23646 0 -9.05991e-06 1.2208 -9.05991e-06 2.72674L-9.05991e-06 29.2733C-9.05991e-06 30.7792 1.23646 32 2.76171 32C4.28697 32 5.52344 30.7792 5.52344 29.2733Z" fill="white"/>
<path d="M14.8545 26.7476L15.0302 26.9211L15.2058 26.7476L15.4846 26.4723L15.6648 26.2944L15.4846 26.1165L6.01603 16.7679L15.3014 7.60017L15.4816 7.42227L15.3014 7.24437L15.0225 6.96907L14.8469 6.79565L14.6713 6.96907L4.92689 16.59L4.74671 16.7679L4.92689 16.9458L14.8545 26.7476Z" fill="white" stroke="white" stroke-width="0.5"/>
<path d="M37.2498 16.5732V16.3232H36.9998H5.38135H5.13135V16.5732V16.9624V17.2124H5.38135H36.9998H37.2498V16.9624V16.5732Z" fill="white" stroke="white" stroke-width="0.5"/>
</g>
<defs>
<clipPath id="clip0_668_230">
<rect width="37" height="32" fill="white"/>
</clipPath>
</defs>
</svg>
