<svg width="32" height="37" viewBox="0 0 32 37" fill="none" xmlns="http://www.w3.org/2000/svg">
<g clip-path="url(#clip0_1039_143)">
<path d="M29.2733 31.4766L2.72674 31.4766C1.2208 31.4766 5.40476e-08 32.713 1.20719e-07 34.2383C1.8739e-07 35.7635 1.2208 37 2.72674 37L29.2733 37C30.7792 37 32 35.7635 32 34.2383C32 32.713 30.7792 31.4766 29.2733 31.4766Z" fill="white"/>
<path d="M26.7476 22.1452L26.9211 21.9696L26.7476 21.7939L26.4723 21.5151L26.2944 21.3349L26.1165 21.5151L16.7679 30.9837L7.60017 21.6984L7.42227 21.5182L7.24437 21.6984L6.96907 21.9772L6.79565 22.1529L6.96907 22.3285L16.59 32.0729L16.7679 32.253L16.9458 32.0729L26.7476 22.1452Z" fill="white" stroke="white" stroke-width="0.5"/>
<path d="M16.5732 -0.250025L16.3232 -0.250025L16.3232 -2.47846e-05L16.3232 31.6184L16.3232 31.8684L16.5732 31.8684L16.9624 31.8684L17.2124 31.8684L17.2124 31.6184L17.2124 -2.48235e-05L17.2124 -0.250025L16.9624 -0.250025L16.5732 -0.250025Z" fill="white" stroke="white" stroke-width="0.5"/>
</g>
<defs>
<clipPath id="clip0_1039_143">
<rect width="37" height="32" fill="white" transform="translate(0 37) rotate(-90)"/>
</clipPath>
</defs>
</svg>
