<svg width="269" height="81" viewBox="0 0 269 81" fill="none" xmlns="http://www.w3.org/2000/svg">
<path d="M120.446 51.4741C122.106 49.1706 122.182 46.8439 121.051 45.6652C120.243 44.7177 118.855 44.7406 117.4 45.1565C116.255 45.4837 114.994 46.0741 113.776 46.7499C114.661 45.5613 116.042 43.6899 117.16 42.0599C117.917 40.9557 118.566 39.9442 118.853 39.3298C118.925 39.1763 118.981 39.0335 119.008 38.9129C119.021 38.8532 119.03 38.7845 119.023 38.7158C119.016 38.6462 118.988 38.551 118.903 38.4801C118.817 38.4089 118.718 38.3989 118.645 38.4052C118.574 38.4114 118.505 38.4347 118.443 38.4618C118.318 38.5164 118.167 38.6116 117.992 38.7404L117.985 38.7461L117.977 38.7524C113.052 42.9975 108.235 45.7418 104.38 47.938C103.611 48.3765 102.88 48.7931 102.193 49.1954C102.161 49.1908 102.128 49.1886 102.095 49.1881C101.973 49.1863 101.819 49.2076 101.632 49.2541L101.621 49.2568L101.611 49.2604C93.3039 52.1313 86.7784 52.5746 82.815 51.6198C80.8293 51.1415 79.5302 50.3235 78.9404 49.3321C78.3633 48.3621 78.4279 47.1588 79.326 45.7961L79.3284 45.7924C82.0606 41.4823 85.2357 37.7541 88.1009 34.3899C89.4319 32.827 90.696 31.3427 91.8178 29.9151C93.5776 27.6754 94.9877 25.5722 95.7183 23.54C96.4527 21.4975 96.5035 19.5171 95.5335 17.5468L95.5313 17.5425C94.8476 16.2192 93.7049 15.4777 92.173 15.1687C90.6541 14.8623 88.7419 14.9777 86.4805 15.3608C83.4383 15.8762 79.7063 16.8881 75.3652 18.0651C73.4591 18.5819 71.4355 19.1306 69.3012 19.6831C75.7311 10.9179 77.3936 8.97535 78.754 7.53565L78.7691 7.51968L78.7812 7.50131C79.0668 7.06698 79.2515 6.64077 79.3335 6.26405C79.4137 5.89593 79.4034 5.53658 79.2437 5.27204C79.1608 5.13478 79.0399 5.02821 78.8847 4.96855C78.7321 4.90991 78.562 4.90245 78.3854 4.93445C78.0386 4.99729 77.6297 5.21848 77.1688 5.6C75.5484 6.89682 74.0183 7.92405 71.7232 8.69607C61.7805 11.7419 40.4785 15.2883 23.2193 2.1926L23.2178 2.19148C22.4565 1.62274 21.8987 1.24057 21.5252 1.01729C21.3411 0.90722 21.1897 0.82835 21.0757 0.787272C21.0239 0.768594 20.9507 0.746562 20.8753 0.750464C20.8351 0.752543 20.7716 0.763056 20.7115 0.807859C20.6444 0.857943 20.6109 0.928717 20.6019 0.994769C20.5877 1.09838 20.6328 1.1869 20.6528 1.224C20.6804 1.27512 20.718 1.32859 20.7597 1.38173C20.8441 1.48914 20.9662 1.62117 21.119 1.77221C21.426 2.07566 21.8754 2.4738 22.4436 2.93482L22.4435 2.93486L22.4478 2.93818C30.9845 9.56416 41.0611 12.1259 50.2422 12.6294C59.0239 13.1109 67.002 11.7104 72.0627 10.1677C56.6657 33.528 40.2833 46.046 27.161 51.8523C20.5437 54.7803 14.7608 55.9994 10.3535 56.0467C8.14951 56.0703 6.29708 55.8009 4.85874 55.3112C3.43274 54.8258 2.43358 54.1312 1.88705 53.3115C1.76992 52.9674 1.64838 52.709 1.53201 52.5367C1.47323 52.4496 1.40601 52.3698 1.32915 52.3152C1.25633 52.2635 1.11988 52.1992 0.970936 52.2688C0.835742 52.3319 0.787728 52.463 0.769392 52.5415C0.748536 52.6308 0.746134 52.7338 0.75448 52.8405C0.77131 53.0558 0.836294 53.3388 0.956537 53.6765C1.25286 54.6049 2.12891 55.3517 3.40497 55.8916C4.68974 56.4352 6.42288 56.7886 8.51431 56.9034C12.6994 57.1331 18.3649 56.4095 24.8586 54.2812C37.8317 50.0294 54.1357 40.1631 68.5913 21.0285C70.7787 20.6717 73.2669 19.9071 75.911 19.0945C76.9369 18.7793 77.9862 18.4568 79.0506 18.1482C82.9182 17.0266 87.0109 16.0772 91.0158 16.2496C92.4476 16.3242 93.223 16.7565 93.578 17.3821C93.9414 18.0226 93.9192 18.9553 93.5337 20.1555C92.7652 22.5476 90.6361 25.752 88.0848 29.0965C86.1542 31.6273 83.9983 34.2179 82.0382 36.5732C81.4137 37.3236 80.809 38.0501 80.2379 38.7432C79.0579 40.1752 78.0198 41.466 77.2492 42.5257C76.864 43.0555 76.5429 43.5314 76.3035 43.941C76.0694 44.3416 75.9022 44.6974 75.8386 44.9872C75.2618 47.0214 75.4782 48.7504 76.4598 50.0889C77.4366 51.4208 79.1378 52.3197 81.4333 52.7733C85.9769 53.6711 92.9788 52.8517 101.822 49.993L120.242 51.3286M120.446 51.4741C120.445 51.4743 120.445 51.4745 120.445 51.4748L120.242 51.3286M120.446 51.4741C120.446 51.474 120.446 51.4739 120.446 51.4738L120.242 51.3286M120.446 51.4741C120.126 51.9224 119.371 52.8785 118.259 53.7799C117.706 54.2279 117.062 54.665 116.335 55.019C116.04 55.0582 115.743 55.0942 115.445 55.1267C118 54.1939 119.721 52.0586 120.242 51.3286M102.029 49.4397C102.128 49.4338 102.193 49.4442 102.23 49.4638C102.304 49.4202 102.379 49.3764 102.454 49.3324L102.029 49.4397ZM102.029 49.4397C102.029 49.439 102.029 49.4384 102.029 49.4378C102.038 49.4163 102.049 49.4024 102.054 49.3955C102.058 49.3918 102.06 49.3892 102.062 49.3877L102.064 49.3853C102.065 49.3852 102.062 49.387 102.057 49.39C102.051 49.3931 102.044 49.3969 102.034 49.4012C102.013 49.4098 101.985 49.4192 101.949 49.4272L101.938 49.4298L101.936 49.4305L101.926 49.4335C101.891 49.4451 101.856 49.4566 101.82 49.4681M113.405 47.2477C113.217 47.3563 113.031 47.4665 112.847 47.5776L113.405 47.2477Z" fill="white" stroke="white" stroke-width="0.5"/>
</svg>
