<svg width="281" height="95" viewBox="0 0 281 95" fill="none" xmlns="http://www.w3.org/2000/svg">
<path d="M279.767 52.6285C279.651 52.6461 279.521 52.684 279.397 52.7447C279.291 52.7875 279.185 52.8302 279.079 52.873C274.982 54.5218 270.78 56.2134 267.162 57.1551C265.305 57.6384 263.616 57.9202 262.184 57.9014C260.751 57.8827 259.603 57.5634 258.795 56.8744L258.795 56.8743L258.79 56.8706C258.631 56.7414 258.543 56.5876 258.509 56.4044C258.473 56.2149 258.494 55.98 258.581 55.6943C258.756 55.1189 259.182 54.4026 259.805 53.5703C260.98 51.9985 262.797 50.0925 264.727 48.0662C264.836 47.9526 264.944 47.8386 265.053 47.7242L265.068 47.7085L265.08 47.6905C265.219 47.4827 265.257 47.254 265.143 47.0453C265.044 46.8641 264.857 46.7527 264.687 46.6818C264.339 46.5368 263.87 46.484 263.547 46.4835C262.736 46.4569 261.851 46.7977 260.963 47.3007C260.068 47.8076 259.138 48.4984 258.235 49.2094C257.889 49.4818 257.548 49.756 257.214 50.0249C256.669 50.4634 256.142 50.8876 255.639 51.2662C254.825 51.8786 254.112 52.341 253.541 52.5313L253.541 52.5313L253.539 52.5323C252.914 52.7486 252.623 52.6562 252.463 52.5235C252.275 52.3671 252.177 52.0909 252.07 51.7373C252.065 51.7217 252.06 51.7059 252.056 51.6899C252.01 51.5396 251.962 51.3772 251.9 51.2346C251.833 51.0774 251.737 50.9105 251.581 50.797C251.414 50.6755 251.21 50.6382 250.979 50.6809C250.759 50.7218 250.507 50.8363 250.214 51.0224C249.668 51.361 249.33 51.683 249.195 52.0054C249.124 52.1744 249.109 52.3442 249.151 52.5067C249.192 52.6658 249.282 52.7985 249.391 52.9069C249.602 53.1187 249.916 53.2713 250.218 53.3821C250.438 53.4624 250.666 53.5259 250.875 53.5748C250.513 55.2294 249.237 56.3733 247.769 57.0009C247.002 57.3284 246.194 57.5101 245.456 57.5485C244.716 57.5871 244.067 57.4804 243.607 57.2508C243.224 57.0533 243.046 56.7882 242.996 56.473C242.943 56.1396 243.027 55.7172 243.248 55.2155C243.689 54.213 244.621 53.0108 245.712 51.8116C246.798 50.6176 248.022 49.447 249.03 48.5083C249.287 48.2688 249.533 48.041 249.759 47.8324C249.971 47.6367 250.164 47.4579 250.331 47.3022C250.669 46.9865 250.931 46.7349 251.049 46.5886C251.322 46.2826 251.417 45.9348 251.34 45.6046C251.266 45.2817 251.037 45.0164 250.743 44.8432C250.152 44.4946 249.248 44.4814 248.454 45.1049L248.454 45.1048L248.446 45.1112L248.432 45.1235C247.049 46.3019 243.944 48.9463 242.076 51.5752C241.143 52.8867 240.481 54.2453 240.548 55.4421C240.583 56.0517 240.806 56.614 241.267 57.0932C241.723 57.5679 242.399 57.9483 243.32 58.2246C244.401 58.5489 246.299 58.5433 248.02 57.8863C249.69 57.2489 251.227 55.9831 251.673 53.779C252.026 53.8223 252.411 53.7712 252.808 53.6606C253.312 53.5203 253.857 53.2777 254.414 52.9755C255.529 52.3711 256.724 51.5109 257.788 50.6906C258.321 50.2797 258.823 49.8771 259.267 49.5199C259.298 49.4944 259.33 49.4692 259.361 49.4443C257.532 51.3791 256.465 52.9751 256.115 54.2763C255.898 55.0845 255.953 55.7971 256.292 56.4022C256.629 57.0019 257.225 57.4602 258.022 57.8054L258.022 57.8055L258.028 57.8082C261.434 59.1703 265.108 58.6384 268.795 57.4952C270.64 56.9229 272.499 56.1939 274.338 55.4638C274.458 55.4161 274.578 55.3685 274.698 55.3209C276.417 54.6376 278.117 53.9623 279.782 53.4152L279.792 53.4118L279.802 53.4074C279.984 53.3295 280.129 53.2488 280.214 53.1583C280.253 53.1164 280.326 53.0228 280.31 52.8928C280.291 52.7475 280.181 52.6789 280.122 52.6538C280.01 52.606 279.872 52.6124 279.767 52.6285Z" fill="white" stroke="white" stroke-width="0.5"/>
<path d="M186.495 75.1907L186.496 75.1903C188.73 74.1241 195.925 71.5208 202.605 69.2431C205.941 68.1055 209.141 67.0515 211.52 66.314C212.709 65.9452 213.69 65.6564 214.379 65.476C214.699 65.3922 214.951 65.3332 215.129 65.3001C214.692 67.1674 213.266 69.5955 211.098 72.251C208.819 75.0434 205.745 78.0584 202.214 80.8943C195.147 86.5714 186.291 91.5004 178.378 92.5149L178.377 92.515C175.277 92.9216 173.237 92.5082 172.148 91.6154C171.091 90.7487 170.859 89.3626 171.547 87.5985C172.236 85.8295 173.836 83.7357 176.343 81.5743C178.847 79.4161 182.241 77.203 186.495 75.1907ZM242.999 53.0751V52.5724L242.598 52.8758C241.675 53.5743 239.831 54.5617 237.527 55.6608C235.23 56.7564 232.498 57.9533 229.816 59.0711C227.133 60.1888 224.502 61.2265 222.409 62.0035C221.362 62.3921 220.451 62.7149 219.736 62.9499C219.225 63.1178 218.824 63.2375 218.547 63.3055C218.499 62.6007 218.219 61.8961 217.802 61.2352C217.324 60.4746 216.656 59.7557 215.919 59.1361C215.181 58.5161 214.368 57.9897 213.592 57.6173C213.05 57.3573 212.516 57.1672 212.032 57.0772C215.409 56.8616 218.047 56.2467 220.019 55.4285C222.097 54.5661 223.451 53.4707 224.14 52.3633C224.833 51.2495 224.855 50.1075 224.223 49.2335C223.601 48.3728 222.391 47.8393 220.761 47.813V47.813H220.757C219.923 47.813 218.946 48.0472 217.931 48.4076C216.913 48.7691 215.84 49.2636 214.811 49.7973C212.754 50.8649 210.852 52.0983 209.876 52.7665L209.856 52.7796L209.84 52.796C209.794 52.8422 209.767 52.8958 209.752 52.9334C209.735 52.974 209.723 53.0165 209.714 53.0556C209.696 53.1338 209.685 53.2201 209.678 53.2954C209.671 53.3721 209.668 53.4443 209.666 53.497C209.665 53.5234 209.665 53.5454 209.665 53.5608L209.665 53.5791L209.664 53.5843L209.664 53.5858V53.5862V53.5864V53.5865L209.664 54.1301L210.077 53.7764C210.417 53.4852 211.256 52.9261 212.345 52.2783C213.429 51.634 214.742 50.912 216.02 50.2955C217.301 49.6772 218.531 49.1724 219.452 48.9535C219.916 48.843 220.272 48.813 220.509 48.8578C220.624 48.8796 220.694 48.9161 220.736 48.9543C220.774 48.9891 220.805 49.0385 220.816 49.1212L220.817 49.123C221.034 50.5693 220.544 51.7158 219.665 52.6442C218.777 53.5813 217.491 54.2937 216.138 54.8377C214.787 55.3805 213.388 55.7479 212.29 56.0058C211.965 56.0821 211.679 56.1459 211.425 56.2028C211.239 56.2444 211.069 56.2823 210.913 56.3186C210.736 56.3597 210.585 56.3971 210.468 56.4315C210.41 56.4486 210.356 56.4662 210.31 56.4845C210.269 56.5007 210.214 56.5252 210.167 56.5622L210.157 56.5709L210.147 56.5807C210.011 56.7169 209.927 56.8778 209.912 57.0513C209.896 57.2243 209.95 57.3851 210.043 57.5165C210.224 57.7697 210.555 57.9227 210.918 57.9279C212.924 58.2262 214.077 59.2474 214.704 60.4767C215.308 61.6624 215.43 63.0598 215.312 64.222C213.523 64.6208 207.789 66.3666 201.562 68.4627C195.107 70.6358 188.085 73.1978 184.334 75.0474L184.332 75.0483C181.118 76.6681 178.11 78.6801 175.647 80.7824C173.188 82.8821 171.259 85.0834 170.222 87.086C169.189 89.0802 169.005 90.9601 170.204 92.3104C171.379 93.6319 173.803 94.3428 177.7 94.2402L177.703 94.2401C180.453 94.1363 184.357 93.1667 188.658 91.5456C192.964 89.9225 197.688 87.6394 202.081 84.8941C206.474 82.1496 210.546 78.9376 213.542 75.4538C216.49 72.0251 218.414 68.3121 218.547 64.5083C219.624 64.1319 224.982 62.1228 230.391 59.891C233.32 58.682 236.273 57.4043 238.578 56.2806C239.73 55.7189 240.726 55.1934 241.477 54.7324C241.852 54.502 242.171 54.285 242.42 54.0852C242.663 53.8895 242.859 53.6947 242.967 53.505L242.999 53.4477V53.382V53.0751Z" fill="white" stroke="white" stroke-width="0.5"/>
<path d="M210.011 53.607L210.151 53.5386V53.3823V53.0754V52.7759L209.856 52.8295C209.756 52.8477 209.584 52.9113 209.378 52.9932C209.161 53.0793 208.879 53.1979 208.542 53.341C208.349 53.423 208.138 53.5133 207.911 53.6105C207.343 53.8535 206.673 54.1402 205.929 54.451C203.846 55.3211 201.192 56.3754 198.614 57.171C196.027 57.9696 193.553 58.4954 191.814 58.3356C190.947 58.2559 190.304 58.009 189.912 57.5838C189.527 57.1669 189.34 56.5305 189.486 55.5679L189.486 55.5674C189.629 54.6133 190.182 53.7105 190.951 52.8023C191.519 52.1324 192.187 51.4789 192.871 50.8092C193.115 50.5707 193.361 50.3302 193.605 50.0861C193.91 49.8108 193.975 49.4498 193.887 49.1098C193.802 48.7817 193.578 48.4724 193.303 48.2329C193.027 47.9919 192.678 47.8022 192.315 47.7316C191.95 47.6604 191.557 47.7095 191.231 47.9704C190.705 48.3912 190.003 49.0936 189.213 49.9096C188.98 50.1495 188.74 50.3997 188.493 50.6566C187.895 51.2787 187.259 51.9401 186.609 52.5899C184.164 54.9325 182.23 56.2426 180.861 56.786C180.175 57.0585 179.657 57.1276 179.299 57.0626C178.959 57.001 178.756 56.8199 178.659 56.5363C178.555 56.2324 178.565 55.7838 178.741 55.1967C178.915 54.6148 179.245 53.9223 179.744 53.1487C180.743 51.6021 182.404 49.7547 184.792 47.8496L184.803 47.8408L184.813 47.8309C184.944 47.6999 185.015 47.5413 185.016 47.3676C185.018 47.2019 184.955 47.0492 184.873 46.919C184.709 46.6624 184.424 46.4277 184.131 46.2414C183.833 46.052 183.501 45.8952 183.216 45.8048C183.074 45.76 182.934 45.7281 182.81 45.7208C182.708 45.7148 182.542 45.7203 182.423 45.8319C181.035 47.0149 178.278 49.6412 176.788 52.1419C176.048 53.3845 175.582 54.658 175.831 55.7261C176.089 56.8363 177.083 57.6103 178.967 57.9247C179.885 58.091 180.887 57.8241 181.842 57.3792C182.803 56.9318 183.746 56.2899 184.558 55.6645C185.271 55.1162 185.888 54.5756 186.333 54.183C186.003 55.2048 186.014 56.2016 186.448 57.0492C186.998 58.1223 188.189 58.8837 190.032 59.1657C193.705 59.7278 200.132 58.4184 210.011 53.607Z" fill="white" stroke="white" stroke-width="0.5"/>
<path d="M149.001 47.8486C149.54 47.4119 150.02 47.0408 150.428 46.7385C149.701 47.601 148.992 48.5827 148.385 49.6097C147.475 51.1515 146.784 52.8142 146.626 54.3411C146.466 55.8763 146.844 57.2985 148.1 58.2917C149.339 59.272 151.388 59.796 154.48 59.6672L154.481 59.6671C161.075 59.358 170.214 56.1708 176.454 53.6137L176.609 53.5501V53.3824V52.9733V52.5886L176.257 52.7448C174.89 53.3525 170.758 54.8834 166.212 56.237C161.656 57.5936 156.733 58.7568 153.762 58.6561L153.762 58.6561C151.506 58.5801 150.31 58.0228 149.781 57.2439C149.254 56.4686 149.321 55.372 149.855 54.038C150.921 51.3811 153.72 48.094 156.176 45.4832C156.239 45.4279 156.296 45.3451 156.303 45.2343C156.31 45.1209 156.259 45.031 156.214 44.9734C156.128 44.8638 155.986 44.7751 155.846 44.7035C155.551 44.5527 155.116 44.4035 154.663 44.2804C154.206 44.1566 153.715 44.0548 153.301 44.0035C153.095 43.9779 152.902 43.9641 152.739 43.9679C152.591 43.9714 152.42 43.9895 152.295 44.0644L152.295 44.0642L152.285 44.0708C151.707 44.4562 150.698 45.2069 149.435 46.1469C148.84 46.5896 148.189 47.0742 147.499 47.5825C145.34 49.1753 142.794 51.0093 140.398 52.5454C137.992 54.0874 135.766 55.3091 134.237 55.7023C133.459 55.9022 132.949 55.8644 132.671 55.6545C132.43 55.4719 132.275 55.0826 132.389 54.3056C133.616 54.0211 134.381 53.6129 134.783 53.162C134.996 52.923 135.113 52.6644 135.128 52.4043C135.143 52.143 135.052 51.9049 134.895 51.7144C134.27 50.9585 132.693 50.951 131.659 52.4202L131.635 52.454L131.624 52.4937C131.274 53.6841 131.159 54.6197 131.263 55.3263C131.369 56.0461 131.707 56.542 132.253 56.7987C132.779 57.0463 133.457 57.0504 134.21 56.9017C134.969 56.7518 135.839 56.4398 136.775 56.0137C140.513 54.312 145.469 50.7146 149.001 47.8486Z" fill="white" stroke="white" stroke-width="0.5"/>
<path d="M114.129 49.1574C113.032 49.8657 111.058 50.7314 108.109 51.8128C109.479 50.1606 110.594 48.9049 111.613 48.1489C112.189 47.7218 112.718 47.4672 113.229 47.3846C113.73 47.3036 114.235 47.3852 114.776 47.6649C114.941 47.7766 115.033 47.8791 115.077 47.9665C115.118 48.0475 115.126 48.1284 115.094 48.2261C115.06 48.3324 114.976 48.4665 114.813 48.6282C114.653 48.7886 114.427 48.9648 114.129 49.1574ZM103.459 51.2798L103.451 51.2892L103.445 51.2993C102.408 52.8408 102.014 54.1211 102.205 55.167C102.399 56.2291 103.18 56.9716 104.3 57.4674C105.418 57.962 106.909 58.2296 108.612 58.332C110.319 58.4347 112.255 58.3723 114.273 58.1959C118.31 57.8429 122.692 57.0316 126.252 56.155C128.032 55.7166 129.609 55.2611 130.837 54.837C131.451 54.625 131.981 54.4199 132.406 54.2276C132.826 54.0374 133.161 53.8526 133.373 53.6771L133.382 53.6696L133.39 53.6613C133.401 53.6501 133.422 53.63 133.447 53.606C133.492 53.5631 133.549 53.5075 133.589 53.4674C133.626 53.4296 133.664 53.3877 133.698 53.3456C133.728 53.3076 133.769 53.2522 133.792 53.1887C133.814 53.1302 133.851 52.9721 133.717 52.8536C133.664 52.8067 133.605 52.7884 133.563 52.7805C133.52 52.7725 133.478 52.7723 133.441 52.7747C133.304 52.7837 133.101 52.8407 132.821 52.9427L132.796 52.9519L132.773 52.9663C132.315 53.2553 131.434 53.6197 130.234 54.0182C129.042 54.4142 127.557 54.8372 125.908 55.2477C122.609 56.0687 118.666 56.8368 115.118 57.2381C113.344 57.4387 111.674 57.5472 110.234 57.5256C108.789 57.504 107.598 57.3515 106.771 57.0429C105.943 56.7339 105.554 56.3015 105.538 55.7478C105.521 55.159 105.913 54.326 106.957 53.1956C109.401 52.53 112.152 51.5857 114.002 50.5577C114.927 50.0436 115.671 49.4858 116.014 48.8992C116.191 48.5975 116.271 48.2723 116.196 47.9396C116.122 47.6104 115.905 47.3142 115.57 47.0489C114.26 46.0114 112.3 45.7623 110.151 46.4176C107.998 47.074 105.632 48.6415 103.459 51.2798Z" fill="white" stroke="white" stroke-width="0.5"/>
<path d="M86.1096 8.99628C87.4342 8.23003 88.4425 7.59252 89.1036 7.17C80.216 20.8817 65.7571 37.1975 49.8558 49.3735C41.7365 55.5907 33.2487 60.7226 24.9416 63.8792C16.6336 67.0361 8.52191 68.2115 1.14388 66.5382L0.573074 66.4087L0.874211 66.9106C0.962577 67.0579 0.926368 67.2122 0.864977 67.335C0.836643 67.3917 0.808687 67.4289 0.802489 67.4372L0.802278 67.4375L0.799918 67.4406L0.797406 67.4441L0.79727 67.4443C0.796451 67.4454 0.793674 67.4493 0.790473 67.4542C0.789189 67.4562 0.78451 67.4634 0.779363 67.473C0.776496 67.4786 0.76951 67.4938 0.765653 67.5035C0.759349 67.5229 0.750007 67.5926 0.755424 67.6424C0.803866 67.7456 0.973225 67.8392 1.05631 67.8342C1.08648 67.8252 1.12787 67.8054 1.14005 67.7977C1.1565 67.7866 1.16816 67.7757 1.16988 67.774L1.17002 67.7739C1.17384 67.7704 1.1771 67.7671 1.17921 67.765C19.9067 70.6329 38.3392 61.1611 53.1632 49.9633C64.6032 41.3217 73.9386 31.6151 79.6254 25.7022C81.3135 23.947 82.6801 22.526 83.6849 21.5665C86.0919 20.1345 91.1406 17.4251 95.9133 16.0832C98.3105 15.4092 100.61 15.0886 102.461 15.4268C104.292 15.7615 105.678 16.7372 106.31 18.6816L106.31 18.6821C107.224 21.4734 106.381 25.2507 104.258 29.2988C102.141 33.335 98.7788 37.5897 94.7428 41.3074C90.7069 45.025 86.0082 48.1959 81.2261 50.0745C76.443 51.9535 71.5958 52.5326 67.2448 51.099L66.772 50.9432L66.9294 51.4155L67.0317 51.7224L67.0707 51.8392L67.187 51.8795C72.3628 53.6742 78.412 52.5673 84.3039 49.8485C90.2007 47.1276 95.9754 42.7766 100.627 38.0221C105.276 33.2709 108.824 28.0953 110.242 23.7142C110.951 21.5238 111.136 19.5063 110.633 17.8332C110.125 16.1466 108.927 14.8416 106.945 14.075L106.943 14.0745C105.069 13.3618 102.775 13.3486 100.384 13.7273C97.9888 14.1065 95.4714 14.8831 93.1353 15.7752C89.5749 17.1348 86.4183 18.7695 84.7301 19.6984C90.0704 12.9538 92.1572 10.0704 93.4186 8.2089C93.7642 7.69902 94.0467 7.26741 94.3166 6.85526C95.0799 5.6893 95.7412 4.67916 97.4368 2.49378L97.4519 2.47434L97.4629 2.45233C97.655 2.06819 97.7294 1.70281 97.633 1.39351C97.531 1.06629 97.2613 0.871045 96.9251 0.792852C96.5965 0.716432 96.1851 0.744033 95.7248 0.861207C95.2608 0.979314 94.7298 1.19281 94.1532 1.50733L94.129 1.52052L94.1083 1.53866C93.8155 1.79489 93.4569 2.03564 93.0028 2.3406C92.8454 2.44628 92.6766 2.55967 92.495 2.68409C91.8002 3.16016 90.9495 3.77881 89.9195 4.70507C66.7898 22.3267 39.1683 18.3532 33.0668 16.7261L32.9092 16.6841L32.8072 16.8115L33.0024 16.9677C32.8072 16.8115 32.8071 16.8116 32.807 16.8117L32.8069 16.812L32.8065 16.8124L32.8056 16.8135L32.8034 16.8164L32.7974 16.8243C32.7949 16.8277 32.7921 16.8316 32.7889 16.836C32.786 16.84 32.7829 16.8445 32.7796 16.8494C32.7656 16.8699 32.7475 16.8985 32.7289 16.9335C32.6931 17.0009 32.6485 17.1051 32.6382 17.2282C32.6274 17.3577 32.6554 17.508 32.7652 17.6432C32.8707 17.773 33.0319 17.8645 33.2406 17.9241L33.2491 17.9265L33.2578 17.9284C49.8363 21.4186 64.2062 18.3641 74.338 14.555C79.4042 12.6504 83.4124 10.5566 86.1096 8.99628Z" fill="white" stroke="white" stroke-width="0.5"/>
</svg>
